<svg width="24px" height="24px" viewBox="0 0 24 24" version="1.1" xmlns="http://www.w3.org/2000/svg" xmlns:xlink="http://www.w3.org/1999/xlink">
    <!-- Generator: Sketch 57.1 (83088) - https://sketch.com -->
    <title>P-outline</title>
    <desc>Created with Sketch.</desc>
    <g id="P-outline" stroke="none" stroke-width="1" fill="none" fill-rule="evenodd">
        <path d="M11.237,21.997 L11.2584098,21.9954013 C11.237764,21.9982859 11.2169431,21.9999146 11.1961041,22.0002645 L11.1927857,21.9999444 L11.233,21.997 L11.237,21.997 Z M11.243,21.996 L11.25,21.995 L11.1927857,21.9999444 L5.47927718,21.9999444 C5.24553765,21.9999444 5.05113697,21.8315148 5.01082249,21.6094029 L5.00315147,21.5238187 L5.00194844,2.50705315 C4.98991248,2.3724898 5.03455115,2.25716937 5.11058936,2.1706613 C5.16069068,2.11093017 5.22493744,2.06657036 5.29562957,2.0384015 C5.30388631,2.03547588 5.31206533,2.0323396 5.32036398,2.02942471 C5.32264001,2.02852059 5.32506011,2.02772031 5.32748615,2.02693833 C5.33854034,2.02371162 5.34990413,2.02026775 5.36136944,2.01721648 L5.38762948,2.01152715 L5.401,2.009 L5.398,2.009 L5.41577252,2.00589472 C5.42525962,2.00436851 5.43483227,2.00317486 5.44442881,2.00225763 C5.44593145,2.00373239 5.44694328,2.00365676 5.44795532,2.00358414 L5.45045205,2.00171854 L5.53992723,2.0024346 L16.9043705,2.00188146 C17.0087022,2.00032275 17.1140914,2.03223378 17.2017246,2.10293775 L17.1440472,2.06566636 C17.2278334,2.11151237 17.2984325,2.18301822 17.3405486,2.2763766 L21.1193231,8.41896036 C21.2134364,8.5719553 21.2134364,8.76489369 21.1193231,8.91788863 L21.1193231,8.91788863 L17.3196311,15.0945444 C17.3048698,15.1202893 17.2877724,15.1445235 17.268628,15.1669579 C17.1736002,15.2823712 17.0425237,15.3348341 16.9123466,15.3350214 L16.9062943,15.3341845 L11.668,15.334 L11.6681618,21.5556446 C11.6676599,21.5638133 11.6669057,21.5719547 11.6659435,21.5800469 C11.645679,21.7789284 11.5185776,21.9123626 11.363299,21.9692283 C11.35085,21.9735229 11.3376272,21.97794 11.3241343,21.9817809 C11.3129589,21.9848668 11.3022152,21.9874535 11.2913987,21.9896911 L11.253,21.995 L11.252,21.995 L11.252,21.996 L11.251,21.996 L11.2431243,21.9973423 L11.237,21.997 L11.243,21.996 Z M5.95540289,5.72284207 L5.95540289,21.047693 L10.5528582,21.047693 L5.95540289,5.72284207 Z M7.87340282,8.80224292 L10.71666,18.2797669 L10.71666,14.9626335 L7.87340282,8.80224292 Z M16.4301686,4.64657641 L11.937,14.381 L16.4301686,14.381933 L16.4301686,4.64657641 Z M16.161,2.954 L6.22341849,2.95491595 L11.1927857,13.7218783 L16.161,2.954 Z M17.38242,4.16153352 L17.38242,13.1753155 L20.1547863,8.6684245 L17.38242,4.16153352 Z M5.47927718,2.00266453 C5.44698009,2.00266453 5.41569408,2.00577612 5.38762948,2.01152715 L5.401,2.009 Z" id="Combined-Shape" fill="#000000" fill-rule="nonzero"></path>
    </g>
</svg>
