<?xml version="1.0" encoding="UTF-8"?>
<svg width="248px" height="96px" viewBox="0 0 248 96" version="1.1" xmlns="http://www.w3.org/2000/svg" xmlns:xlink="http://www.w3.org/1999/xlink">
    <title>pictogram-toggle</title>
    <g id="pictogram-toggle" stroke="none" stroke-width="1" fill="none" fill-rule="evenodd">
        <g id="Group" transform="translate(86.000000, 29.000000)">
            <path d="M57,0 C67.4934102,0 76,8.50658975 76,19 C76,29.4934102 67.4934102,38 57,38 C38,38 38,38 19,38 C8.50658975,38 0,29.4934102 0,19 C0,8.50658975 8.50658975,0 19,0 L57,0" id="Path" stroke="#000000" stroke-width="2" stroke-linecap="square" stroke-dasharray="5,1"></path>
            <path d="M20,35 C28.836556,35 36,27.836556 36,19 C36,10.163444 28.836556,3 20,3 C11.163444,3 4,10.163444 4,19 C4,27.836556 11.163444,35 20,35 Z" id="Oval" fill="#000000"></path>
        </g>
    </g>
</svg>