<?xml version="1.0" encoding="UTF-8"?>
<svg width="503px" height="370px" viewBox="0 0 503 370" version="1.1" xmlns="http://www.w3.org/2000/svg" xmlns:xlink="http://www.w3.org/1999/xlink">
    <!-- Generator: Sketch 57.1 (83088) - https://sketch.com -->
    <title>logo-with-text</title>
    <desc>Created with Sketch.</desc>
    <g id="logo-with-text" stroke="none" stroke-width="1" fill="none" fill-rule="evenodd">
        <path d="M68.4678711,280.016113 C68.4678711,289.187709 65.7632269,296.272192 60.3538574,301.269775 C54.9444879,306.267359 47.2610524,308.766113 37.3033203,308.766113 L31.0704102,308.766113 L31.0704102,336 L8.89023438,336 L8.89023438,253.905273 L37.3033203,253.905273 C47.6728383,253.905273 55.4592188,256.170062 60.6626953,260.699707 C65.8661719,265.229352 68.4678711,271.66809 68.4678711,280.016113 Z M31.0704102,290.685059 L35.1133789,290.685059 C38.4451013,290.685059 41.0935937,289.749196 43.0589355,287.877441 C45.0242774,286.005687 46.0069336,283.422705 46.0069336,280.128418 C46.0069336,274.588026 42.9373028,271.817871 36.7979492,271.817871 L31.0704102,271.817871 L31.0704102,290.685059 Z M111.568066,271.256348 C113.477256,271.256348 115.29283,271.406086 117.014844,271.705566 L118.250195,271.930176 L116.284863,292.650391 C114.487979,292.20117 111.998584,291.976562 108.816602,291.976562 C104.024911,291.976562 100.5435,293.071522 98.3722656,295.261475 C96.2010308,297.451427 95.1154297,300.605285 95.1154297,304.723145 L95.1154297,336 L73.1598633,336 L73.1598633,272.379395 L89.5001953,272.379395 L92.9254883,282.542969 L93.9923828,282.542969 C95.8267019,279.173811 98.381608,276.45045 101.657178,274.372803 C104.932747,272.295156 108.236344,271.256348 111.568066,271.256348 Z M150.737598,337.123047 C140.143469,337.123047 131.917233,334.306099 126.058643,328.672119 C120.200052,323.038139 117.270801,315.017793 117.270801,304.61084 C117.270801,293.866971 119.984804,285.622018 125.412891,279.875732 C130.840978,274.129447 138.589924,271.256348 148.659961,271.256348 C158.243342,271.256348 165.646019,273.755102 170.868213,278.752686 C176.090407,283.750269 178.701465,290.947056 178.701465,300.343262 L178.701465,310.11377 L139.450977,310.11377 C139.600717,313.670102 140.901567,316.458974 143.353564,318.480469 C145.805562,320.501963 149.146593,321.512695 153.376758,321.512695 C157.232571,321.512695 160.779492,321.147709 164.017627,320.417725 C167.255762,319.68774 170.765248,318.443043 174.546191,316.683594 L174.546191,332.462402 C171.102164,334.221851 167.545884,335.438473 163.877246,336.112305 C160.208608,336.786136 155.828769,337.123047 150.737598,337.123047 Z M149.446094,286.192871 C146.863073,286.192871 144.701229,287.007072 142.960498,288.635498 C141.219767,290.263924 140.199676,292.81883 139.900195,296.300293 L158.767383,296.300293 C158.692513,293.230616 157.82216,290.778655 156.156299,288.944336 C154.490438,287.110017 152.253725,286.192871 149.446094,286.192871 Z M233.144434,316.458984 C233.144434,323.272169 230.823493,328.419416 226.181543,331.900879 C221.539593,335.382342 214.876248,337.123047 206.191309,337.123047 C201.474488,337.123047 197.375408,336.870364 193.893945,336.36499 C190.412483,335.859617 186.856203,334.933112 183.225,333.585449 L183.225,316.009766 C186.631593,317.507169 190.365686,318.742508 194.427393,319.71582 C198.489099,320.689132 202.110889,321.175781 205.292871,321.175781 C210.047127,321.175781 212.424219,320.09018 212.424219,317.918945 C212.424219,316.795893 211.759756,315.794519 210.430811,314.914795 C209.101865,314.03507 205.236751,312.322441 198.835352,309.776855 C192.995479,307.38101 188.915116,304.657649 186.594141,301.606689 C184.273165,298.55573 183.112695,294.690616 183.112695,290.01123 C183.112695,284.096487 185.396201,279.492041 189.963281,276.197754 C194.530361,272.903467 200.987816,271.256348 209.33584,271.256348 C213.528569,271.256348 217.468553,271.714921 221.155908,272.63208 C224.843264,273.54924 228.670944,274.887524 232.639063,276.646973 L226.686914,290.797363 C223.766978,289.487135 220.67863,288.373458 217.421777,287.456299 C214.164925,286.539139 211.507074,286.080566 209.448145,286.080566 C205.854377,286.080566 204.05752,286.960278 204.05752,288.719727 C204.05752,289.805344 204.684548,290.731848 205.938623,291.499268 C207.192698,292.266687 210.814488,293.829578 216.804102,296.187988 C221.258876,298.022307 224.58119,299.819164 226.771143,301.578613 C228.961095,303.338062 230.570779,305.406319 231.600244,307.783447 C232.629709,310.160575 233.144434,313.052392 233.144434,316.458984 Z M278.266113,336 L278.266113,301.297852 C278.266113,292.762653 275.739283,288.495117 270.685547,288.495117 C267.091779,288.495117 264.443287,290.001857 262.73999,293.015381 C261.036694,296.028905 260.185059,301.035772 260.185059,308.036133 L260.185059,336 L238.229492,336 L238.229492,248.626953 L260.185059,248.626953 L260.185059,261.036621 C260.185059,266.651884 259.885582,273.053187 259.286621,280.240723 L260.297363,280.240723 C262.393728,276.946435 264.883124,274.625495 267.765625,273.277832 C270.648126,271.930169 273.998516,271.256348 277.816895,271.256348 C284.92956,271.256348 290.460511,273.305888 294.409912,277.405029 C298.359313,281.504171 300.333984,287.241011 300.333984,294.615723 L300.333984,336 L278.266113,336 Z M349.66709,336 L345.455664,327.577148 L345.006445,327.577148 C342.049074,331.245787 339.035595,333.7539 335.965918,335.101562 C332.896241,336.449225 328.928182,337.123047 324.061621,337.123047 C318.072008,337.123047 313.355258,335.32619 309.91123,331.732422 C306.467203,328.138654 304.745215,323.084994 304.745215,316.571289 C304.745215,309.795539 307.10359,304.751237 311.82041,301.438232 C316.537231,298.125228 323.369031,296.26286 332.316016,295.851074 L342.928809,295.51416 L342.928809,294.615723 C342.928809,289.374811 340.345827,286.754395 335.179785,286.754395 C330.537835,286.754395 324.641898,288.326644 317.491797,291.471191 L311.146582,276.983887 C318.558728,273.165508 327.917359,271.256348 339.222754,271.256348 C347.383602,271.256348 353.700678,273.277812 358.17417,277.320801 C362.647662,281.36379 364.884375,287.016402 364.884375,294.278809 L364.884375,336 L349.66709,336 Z M333.38291,321.625 C336.040801,321.625 338.314948,320.782723 340.20542,319.098145 C342.095892,317.413566 343.041113,315.223646 343.041113,312.52832 L343.041113,307.586914 L337.987402,307.811523 C330.762431,308.073569 327.15,310.73142 327.15,315.785156 C327.15,319.678405 329.227616,321.625 333.38291,321.625 Z M410.904492,337.123047 C407.685075,337.123047 404.802617,336.589605 402.257031,335.522705 C399.711446,334.455805 397.184615,332.537286 394.676465,329.76709 L393.665723,329.76709 C394.339554,334.221865 394.676465,336.992019 394.676465,338.077637 L394.676465,363.626953 L372.720898,363.626953 L372.720898,272.379395 L390.577344,272.379395 L393.665723,280.465332 L394.676465,280.465332 C398.756889,274.325978 404.390784,271.256348 411.57832,271.256348 C418.616116,271.256348 424.137708,274.17624 428.143262,280.016113 C432.148816,285.855986 434.151563,293.866974 434.151563,304.049316 C434.151563,314.306529 432.064588,322.383027 427.890576,328.279053 C423.716564,334.175078 418.054593,337.123047 410.904492,337.123047 Z M403.548535,288.495117 C400.329118,288.495117 398.073688,289.646229 396.782178,291.948486 C395.490667,294.250744 394.78877,297.666644 394.676465,302.196289 L394.676465,303.937012 C394.676465,309.402534 395.406438,313.351876 396.866406,315.785156 C398.326374,318.218437 400.628598,319.435059 403.773145,319.435059 C406.580776,319.435059 408.620957,318.227795 409.89375,315.813232 C411.166543,313.39867 411.80293,309.402534 411.80293,303.824707 C411.80293,298.359185 411.166543,294.437919 409.89375,292.060791 C408.620957,289.683663 406.505907,288.495117 403.548535,288.495117 Z M470.288867,337.123047 C459.694739,337.123047 451.468503,334.306099 445.609912,328.672119 C439.751322,323.038139 436.82207,315.017793 436.82207,304.61084 C436.82207,293.866971 439.536073,285.622018 444.96416,279.875732 C450.392247,274.129447 458.141193,271.256348 468.21123,271.256348 C477.794612,271.256348 485.197288,273.755102 490.419482,278.752686 C495.641677,283.750269 498.252734,290.947056 498.252734,300.343262 L498.252734,310.11377 L459.002246,310.11377 C459.151986,313.670102 460.452836,316.458974 462.904834,318.480469 C465.356832,320.501963 468.697863,321.512695 472.928027,321.512695 C476.783841,321.512695 480.330762,321.147709 483.568896,320.417725 C486.807031,319.68774 490.316518,318.443043 494.097461,316.683594 L494.097461,332.462402 C490.653433,334.221851 487.097154,335.438473 483.428516,336.112305 C479.759877,336.786136 475.380038,337.123047 470.288867,337.123047 Z M468.997363,286.192871 C466.414343,286.192871 464.252499,287.007072 462.511768,288.635498 C460.771036,290.263924 459.750946,292.81883 459.451465,296.300293 L478.318652,296.300293 C478.243782,293.230616 477.37343,290.778655 475.707568,288.944336 C474.041707,287.110017 471.804995,286.192871 468.997363,286.192871 Z" id="Preshape" fill="#000000" fill-rule="nonzero"></path>
        <polygon id="Path-4" stroke="#ADB5BD" fill="#ADB5BD" stroke-linejoin="bevel" points="289 137 328 68.5 289.350807 0"></polygon>
        <polygon id="Rectangle" stroke="#868E96" fill="#868E96" stroke-linejoin="bevel" points="288.654735 0 289 0.0727822345 289 136.815989 225 137"></polygon>
        <polygon id="Path-3" stroke="#484F58" fill="#495057" stroke-linejoin="bevel" points="225.129017 137 289 0 168 0"></polygon>
        <polygon id="Path-2" stroke="#202529" fill="#212529" stroke-linejoin="bevel" points="225 201 225 136.844046 168 0"></polygon>
        <polygon id="Path" stroke="#343A41" fill="#343A40" stroke-linejoin="bevel" points="225 201 168 0 168 201"></polygon>
    </g>
</svg>