<?xml version="1.0" encoding="UTF-8"?>
<svg width="248px" height="96px" viewBox="0 0 248 96" version="1.1" xmlns="http://www.w3.org/2000/svg" xmlns:xlink="http://www.w3.org/1999/xlink">
    <!-- Generator: Sketch 57.1 (83088) - https://sketch.com -->
    <title>pictogram-modal</title>
    <desc>Created with Sketch.</desc>
    <g id="pictogram-modal" stroke="none" stroke-width="1" fill="none" fill-rule="evenodd">
        <rect id="text-copy" fill="#000000" x="4" y="4" width="240" height="88" rx="2"></rect>
        <polygon id="Rectangle-Copy-6" fill="#FFFFFF" points="4 28 244 28 244 30 4 30"></polygon>
        <g id="Group" transform="translate(231.000000, 16.000000) rotate(45.000000) translate(-231.000000, -16.000000) translate(225.000000, 10.000000)" fill="#4C6EF5">
            <rect id="Rectangle-Copy-24" x="4.8" y="0" width="2.4" height="12" rx="0.5"></rect>
            <rect id="Rectangle-Copy-25" x="0" y="4.8" width="12" height="2.4" rx="0.5"></rect>
        </g>
        <path d="M13,14 L75,14 C75.5522847,14 76,14.4477153 76,15 L76,17 C76,17.5522847 75.5522847,18 75,18 L13,18 C12.4477153,18 12,17.5522847 12,17 L12,15 C12,14.4477153 12.4477153,14 13,14 Z" id="Rectangle-Copy-6" fill="#FFFFFF"></path>
        <rect id="Rectangle-Copy-2" fill="#FFFFFF" x="12" y="48" width="167" height="4" rx="1"></rect>
        <rect id="Rectangle-Copy-4" fill="#FFFFFF" x="12" y="64" width="140" height="4" rx="1"></rect>
        <rect id="Rectangle-Copy-3" fill="#FFFFFF" x="12" y="56" width="123" height="4" rx="1"></rect>
        <rect id="Rectangle-Copy-5" fill="#FFFFFF" x="12" y="72" width="123" height="4" rx="1"></rect>
    </g>
</svg>