<?xml version="1.0" encoding="UTF-8"?>
<svg width="248px" height="96px" viewBox="0 0 248 96" version="1.1" xmlns="http://www.w3.org/2000/svg" xmlns:xlink="http://www.w3.org/1999/xlink">
    <title>pictogram-labels</title>
    <g id="pictogram-labels" stroke="none" stroke-width="1" fill="none" fill-rule="evenodd">
        <rect id="Rectangle-Copy-15" fill="#000000" x="4" y="24" width="56" height="24" rx="12"></rect>
        <rect id="Rectangle-Copy-17" fill="#4C6EF5" x="144" y="24" width="48" height="24" rx="12"></rect>
        <rect id="Rectangle-Copy-20" fill="#000000" x="88" y="52" width="56" height="24" rx="12"></rect>
        <rect id="Rectangle-Copy-18" fill="#000000" x="196" y="24" width="48" height="24" rx="12"></rect>
        <path d="M76,24 L128,24 C134.627417,24 140,29.372583 140,36 C140,42.627417 134.627417,48 128,48 L76,48 C69.372583,48 64,42.627417 64,36 C64,29.372583 69.372583,24 76,24 Z" id="Rectangle-Copy-16" fill="#000000"></path>
        <path d="M16,52 L72,52 C78.627417,52 84,57.372583 84,64 C84,70.627417 78.627417,76 72,76 L16,76 C9.372583,76 4,70.627417 4,64 C4,57.372583 9.372583,52 16,52 Z" id="Rectangle-Copy-19" fill="#000000"></path>
        <rect id="Rectangle" fill="#FFFFFF" x="12" y="34" width="40" height="4" rx="2"></rect>
        <path d="M154,34 L182,34 C183.104569,34 184,34.8954305 184,36 C184,37.1045695 183.104569,38 182,38 L154,38 C152.895431,38 152,37.1045695 152,36 C152,34.8954305 152.895431,34 154,34 Z" id="Rectangle-Copy-2" fill="#FAFCFF"></path>
        <path d="M98,62 L134,62 C135.104569,62 136,62.8954305 136,64 C136,65.1045695 135.104569,66 134,66 L98,66 C96.8954305,66 96,65.1045695 96,64 C96,62.8954305 96.8954305,62 98,62 Z" id="Rectangle-Copy-5" fill="#FFFFFF"></path>
        <path d="M206,34 L234,34 C235.104569,34 236,34.8954305 236,36 C236,37.1045695 235.104569,38 234,38 L206,38 C204.895431,38 204,37.1045695 204,36 C204,34.8954305 204.895431,34 206,34 Z" id="Rectangle-Copy-3" fill="#FFFFFF"></path>
        <path d="M74,34 L130,34 C131.104569,34 132,34.8954305 132,36 C132,37.1045695 131.104569,38 130,38 L74,38 C72.8954305,38 72,37.1045695 72,36 C72,34.8954305 72.8954305,34 74,34 Z" id="Rectangle-Copy" fill="#FFFFFF"></path>
        <path d="M14,62 L74,62 C75.1045695,62 76,62.8954305 76,64 C76,65.1045695 75.1045695,66 74,66 L14,66 C12.8954305,66 12,65.1045695 12,64 C12,62.8954305 12.8954305,62 14,62 Z" id="Rectangle-Copy-4" fill="#FFFFFF"></path>
    </g>
</svg>