<?xml version="1.0" encoding="UTF-8"?>
<svg width="248px" height="96px" viewBox="0 0 248 96" version="1.1" xmlns="http://www.w3.org/2000/svg" xmlns:xlink="http://www.w3.org/1999/xlink">
    <title>pictogram-editor</title>
    <g id="pictogram-editor" stroke="none" stroke-width="1" fill="none" fill-rule="evenodd">
        <rect id="text-copy-2" fill="#000000" x="4" y="4" width="240" height="88" rx="8"></rect>
        <g id="Group" transform="translate(16.000000, 12.000000)">
            <rect id="Rectangle-Copy-5" fill="#FFFFFF" x="16" y="0" width="32" height="4" rx="1"></rect>
            <rect id="Rectangle-Copy-8" fill="#FFFFFF" x="24" y="24" width="12" height="4" rx="1"></rect>
            <rect id="Rectangle-Copy-13" fill="#FFFFFF" x="52" y="0" width="12" height="4" rx="1"></rect>
            <rect id="Rectangle-Copy-11" fill="#4C6EF5" x="60" y="16" width="12" height="4" rx="1"></rect>
            <rect id="Rectangle-Copy-15" fill="#4C6EF5" x="76" y="16" width="12" height="4" rx="1"></rect>
            <rect id="Rectangle-Copy-10" fill="#FFFFFF" x="40" y="24" width="20" height="4" rx="1"></rect>
            <rect id="Rectangle-Copy-9" fill="#FFFFFF" x="16" y="32" width="48" height="4" rx="1"></rect>
            <rect id="Rectangle-Copy-12" fill="#FFFFFF" x="44" y="8" width="48" height="4" rx="1"></rect>
            <rect id="Rectangle-Copy-14" fill="#FFFFFF" x="64" y="24" width="8" height="4" rx="1"></rect>
            <rect id="Rectangle-Copy-7" fill="#4C6EF5" x="32" y="16" width="24" height="4" rx="1"></rect>
            <rect id="Rectangle-Copy-6" fill="#FFFFFF" x="24" y="8" width="16" height="4" rx="1"></rect>
            <rect id="Rectangle" fill="#FFFFFF" x="0" y="0" width="4" height="4" rx="1"></rect>
            <rect id="Rectangle-Copy" fill="#FFFFFF" x="0" y="8" width="4" height="4" rx="1"></rect>
            <rect id="Rectangle-Copy-2" fill="#4C6EF5" x="0" y="16" width="4" height="4" rx="1"></rect>
            <rect id="Rectangle-Copy-3" fill="#FFFFFF" x="0" y="24" width="4" height="4" rx="1"></rect>
            <rect id="Rectangle-Copy-27" fill="#FFFFFF" x="0" y="40" width="4" height="4" rx="1"></rect>
            <rect id="Rectangle-Copy-29" fill="#FFFFFF" x="0" y="56" width="8" height="4" rx="1"></rect>
            <rect id="Rectangle-Copy-4" fill="#FFFFFF" x="0" y="32" width="4" height="4" rx="1"></rect>
            <rect id="Rectangle-Copy-28" fill="#FFFFFF" x="0" y="48" width="8" height="4" rx="1"></rect>
            <rect id="Rectangle-Copy-30" fill="#FFFFFF" x="0" y="64" width="8" height="4" rx="1"></rect>
        </g>
        <g id="Group-Copy" transform="translate(140.000000, 12.000000)" fill="#FFFFFF">
            <rect id="Rectangle-Copy-8" x="24" y="32" width="12" height="4" rx="1"></rect>
            <rect id="Rectangle-Copy-11" x="44" y="8" width="12" height="4" rx="1"></rect>
            <rect id="Rectangle-Copy-10" x="40" y="32" width="20" height="4" rx="1"></rect>
            <rect id="Rectangle-Copy-17" x="16" y="24" width="12" height="4" rx="1"></rect>
            <rect id="Rectangle-Copy-23" x="28" y="64" width="12" height="4" rx="1"></rect>
            <rect id="Rectangle-Copy-9" x="28" y="40" width="15" height="4" rx="1"></rect>
            <rect id="Rectangle-Copy-20" x="32" y="48" width="28" height="4" rx="1"></rect>
            <rect id="Rectangle-Copy-19" x="47" y="40" width="15" height="4" rx="1"></rect>
            <rect id="Rectangle-Copy-22" x="28" y="56" width="15" height="4" rx="1"></rect>
            <rect id="Rectangle-Copy-12" x="44" y="0" width="20" height="4" rx="1"></rect>
            <rect id="Rectangle-Copy-14" x="64" y="48" width="8" height="4" rx="1"></rect>
            <rect id="Rectangle-Copy-21" x="64" y="48" width="12" height="4" rx="1"></rect>
            <rect id="Rectangle-Copy-18" x="32" y="24" width="8" height="4" rx="1"></rect>
            <rect id="Rectangle-Copy-24" x="44" y="64" width="8" height="4" rx="1"></rect>
            <rect id="Rectangle-Copy-7" x="16" y="8" width="24" height="4" rx="1"></rect>
            <rect id="Rectangle-Copy-6" x="24" y="0" width="16" height="4" rx="1"></rect>
            <rect id="Rectangle-Copy-16" x="68" y="0" width="7" height="4" rx="1"></rect>
            <rect id="Rectangle" x="0" y="0" width="8" height="4" rx="1"></rect>
            <rect id="Rectangle-Copy" x="0" y="8" width="8" height="4" rx="1"></rect>
            <rect id="Rectangle-Copy-2" x="0" y="16" width="8" height="4" rx="1"></rect>
            <rect id="Rectangle-Copy-3" x="0" y="24" width="8" height="4" rx="1"></rect>
            <rect id="Rectangle-Copy-27" x="0" y="40" width="8" height="4" rx="1"></rect>
            <rect id="Rectangle-Copy-29" x="0" y="56" width="8" height="4" rx="1"></rect>
            <rect id="Rectangle-Copy-4" x="0" y="32" width="8" height="4" rx="1"></rect>
            <rect id="Rectangle-Copy-28" x="0" y="48" width="8" height="4" rx="1"></rect>
            <rect id="Rectangle-Copy-30" x="0" y="64" width="8" height="4" rx="1"></rect>
        </g>
        <rect id="Rectangle" fill="#FFFFFF" x="123" y="4" width="2" height="88"></rect>
    </g>
</svg>