<?xml version="1.0" encoding="UTF-8"?>
<svg width="248px" height="96px" viewBox="0 0 248 96" version="1.1" xmlns="http://www.w3.org/2000/svg" xmlns:xlink="http://www.w3.org/1999/xlink">
    <title>pictogram-spinner</title>
    <g id="pictogram-spinner" stroke="none" stroke-width="1" fill="none" fill-rule="evenodd">
        <path d="M124,25 C125.656854,25 127,26.3431458 127,28 L127,34 C127,35.6568542 125.656854,37 124,37 C122.343146,37 121,35.6568542 121,34 L121,28 C121,26.3431458 122.343146,25 124,25 Z" id="Rectangle" fill="#000000"></path>
        <path d="M136.020815,29.9791847 C137.67767,29.9791847 139.020815,31.3223305 139.020815,32.9791847 L139.020815,38.9791847 C139.020815,40.636039 137.67767,41.9791847 136.020815,41.9791847 C134.363961,41.9791847 133.020815,40.636039 133.020815,38.9791847 L133.020815,32.9791847 C133.020815,31.3223305 134.363961,29.9791847 136.020815,29.9791847 Z" id="Rectangle" fill="#000000" transform="translate(136.020815, 35.979185) rotate(45.000000) translate(-136.020815, -35.979185) "></path>
        <path d="M141,42 C142.656854,42 144,43.3431458 144,45 L144,51 C144,52.6568542 142.656854,54 141,54 C139.343146,54 138,52.6568542 138,51 L138,45 C138,43.3431458 139.343146,42 141,42 Z" id="Rectangle" fill="#000000" transform="translate(141.000000, 48.000000) rotate(90.000000) translate(-141.000000, -48.000000) "></path>
        <path d="M136.020815,54.0208153 C137.67767,54.0208153 139.020815,55.363961 139.020815,57.0208153 L139.020815,63.0208153 C139.020815,64.6776695 137.67767,66.0208153 136.020815,66.0208153 C134.363961,66.0208153 133.020815,64.6776695 133.020815,63.0208153 L133.020815,57.0208153 C133.020815,55.363961 134.363961,54.0208153 136.020815,54.0208153 Z" id="Rectangle" fill="#4C6EF5" transform="translate(136.020815, 60.020815) rotate(135.000000) translate(-136.020815, -60.020815) "></path>
        <path d="M124,59 C125.656854,59 127,60.3431458 127,62 L127,68 C127,69.6568542 125.656854,71 124,71 C122.343146,71 121,69.6568542 121,68 L121,62 C121,60.3431458 122.343146,59 124,59 Z" id="Rectangle" fill="#000000" transform="translate(124.000000, 65.000000) rotate(180.000000) translate(-124.000000, -65.000000) "></path>
        <path d="M111.979185,54.0208153 C113.636039,54.0208153 114.979185,55.363961 114.979185,57.0208153 L114.979185,63.0208153 C114.979185,64.6776695 113.636039,66.0208153 111.979185,66.0208153 C110.32233,66.0208153 108.979185,64.6776695 108.979185,63.0208153 L108.979185,57.0208153 C108.979185,55.363961 110.32233,54.0208153 111.979185,54.0208153 Z" id="Rectangle" fill="#000000" transform="translate(111.979185, 60.020815) rotate(225.000000) translate(-111.979185, -60.020815) "></path>
        <path d="M107,42 C108.656854,42 110,43.3431458 110,45 L110,51 C110,52.6568542 108.656854,54 107,54 C105.343146,54 104,52.6568542 104,51 L104,45 C104,43.3431458 105.343146,42 107,42 Z" id="Rectangle" fill="#000000" transform="translate(107.000000, 48.000000) rotate(270.000000) translate(-107.000000, -48.000000) "></path>
        <path d="M111.979185,29.9791847 C113.636039,29.9791847 114.979185,31.3223305 114.979185,32.9791847 L114.979185,38.9791847 C114.979185,40.636039 113.636039,41.9791847 111.979185,41.9791847 C110.32233,41.9791847 108.979185,40.636039 108.979185,38.9791847 L108.979185,32.9791847 C108.979185,31.3223305 110.32233,29.9791847 111.979185,29.9791847 Z" id="Rectangle" fill="#000000" transform="translate(111.979185, 35.979185) rotate(315.000000) translate(-111.979185, -35.979185) "></path>
    </g>
</svg>