<?xml version="1.0" encoding="UTF-8"?>
<svg width="248px" height="96px" viewBox="0 0 248 96" version="1.1" xmlns="http://www.w3.org/2000/svg" xmlns:xlink="http://www.w3.org/1999/xlink">
    <title>pictogram-icon</title>
    <g id="pictogram-icon" stroke="none" stroke-width="1" fill="none" fill-rule="evenodd">
        <rect id="Rectangle-Copy-8" fill="#000000" x="92" y="16" width="64" height="64" rx="8"></rect>
        <path d="M92,71.0928978 L156,71.0928978 L156,72 C156,76.418278 152.418278,80 148,80 L100,80 C95.581722,80 92,76.418278 92,72 L92,71.0928978 L92,71.0928978 Z" id="Rectangle-Copy-8" fill="#4C6EF5"></path>
        <path d="M112,26 L130.70277,26 C131.424042,26 132.08944,26.3883614 132.444171,27.0163732 L138.245713,37.2873541 C138.589802,37.8965246 138.590556,38.6412137 138.247701,39.2510797 L132.441612,49.5788898 C132.08842,50.2071441 131.424519,50.5967757 130.703794,50.5987833 L122.434429,50.6218181 C121.332039,50.6248888 120.44,51.5194158 120.44,52.6218103 L120.44,60 C120.44,61.1045695 119.544569,62 118.44,62 L112,62 C110.895431,62 110,61.1045695 110,60 L110,28 C110,26.8954305 110.895431,26 112,26 Z" id="Rectangle" fill="#FFFFFF"></path>
    </g>
</svg>