<?xml version="1.0" encoding="UTF-8"?>
<svg width="248px" height="96px" viewBox="0 0 248 96" version="1.1" xmlns="http://www.w3.org/2000/svg" xmlns:xlink="http://www.w3.org/1999/xlink">
    <title>pictogram-options</title>
    <g id="pictogram-options" stroke="none" stroke-width="1" fill="none" fill-rule="evenodd">
        <g id="Group" transform="translate(26.000000, 20.000000)" stroke="#000000" stroke-width="2">
            <path d="M0,76 L0,2 C0,0.8954305 0.8954305,0 2,0 L194,0 C195.104569,0 196,0.8954305 196,2 L196,76" id="Path"></path>
        </g>
        <rect id="Rectangle-Copy-6" fill="#4C6EF5" x="25" y="11" width="198" height="4" rx="2"></rect>
        <g id="Group-Copy" transform="translate(29.000000, 23.000000)">
            <path d="M2,0 L188,0 C189.104569,-2.02906125e-16 190,0.8954305 190,2 L190,30 L190,30 L0,30 L0,2 C-1.3527075e-16,0.8954305 0.8954305,-1.91384796e-17 2,0 Z" id="Rectangle-Copy-2" fill="#000000"></path>
            <rect id="Rectangle-Copy-2" fill="#FFFFFF" x="9" y="7.5" width="15" height="15" rx="0.75"></rect>
            <rect id="Rectangle" fill="#FFFFFF" x="33" y="12" width="126" height="6" rx="0.75"></rect>
        </g>
        <g id="Group-Copy-3" transform="translate(29.000000, 55.000000)">
            <polygon id="Rectangle-Copy-2" fill="#000000" points="0 0 190 0 190 30 0 30"></polygon>
            <rect id="Rectangle-Copy-2" fill="#FFFFFF" x="9" y="7.5" width="15" height="15" rx="0.75"></rect>
            <rect id="Rectangle-Copy-2" fill="#4C6EF5" x="13.5" y="12" width="6" height="6" rx="0.75"></rect>
            <rect id="Rectangle" fill="#FFFFFF" x="33" y="12" width="126" height="6" rx="0.75"></rect>
        </g>
        <g id="Group-Copy-4" transform="translate(29.000000, 87.000000)">
            <polygon id="Rectangle-Copy-2" fill="#000000" points="0 0 190 0 190 9 0 9"></polygon>
            <path d="M9.75,7.5 L23.25,7.5 C23.6642136,7.5 24,7.83578644 24,8.25 L24,9 L24,9 L9,9 L9,8.25 C9,7.83578644 9.33578644,7.5 9.75,7.5 Z" id="Rectangle-Copy-2" fill="#FFFFFF"></path>
        </g>
    </g>
</svg>