<?xml version="1.0" encoding="UTF-8"?>
<svg width="248px" height="96px" viewBox="0 0 248 96" version="1.1" xmlns="http://www.w3.org/2000/svg" xmlns:xlink="http://www.w3.org/1999/xlink">
    <title>pictogram-appear</title>
    <g id="pictogram-appear" stroke="none" stroke-width="1" fill="none" fill-rule="evenodd">
        <path d="M84,16 L164,16 C168.418278,16 172,19.581722 172,24 L172,56 C172,60.418278 168.418278,64 164,64 L84,64 C79.581722,64 76,60.418278 76,56 L76,24 C76,19.581722 79.581722,16 84,16 Z" id="Rectangle-Copy-11" fill="#000000"></path>
        <path d="M92,32 L156,32 C160.418278,32 164,35.581722 164,40 L164,64 C164,68.418278 160.418278,72 156,72 L92,72 C87.581722,72 84,68.418278 84,64 L84,40 C84,35.581722 87.581722,32 92,32 Z" id="Rectangle-Copy-11" fill="#000000" opacity="0.5"></path>
        <path d="M100,48 L148,48 C152.418278,48 156,51.581722 156,56 L156,72 C156,76.418278 152.418278,80 148,80 L100,80 C95.581722,80 92,76.418278 92,72 L92,56 C92,51.581722 95.581722,48 100,48 Z" id="Rectangle-Copy-11" fill="#000000" opacity="0.25"></path>
    </g>
</svg>