<?xml version="1.0" encoding="UTF-8"?>
<svg width="248px" height="96px" viewBox="0 0 248 96" version="1.1" xmlns="http://www.w3.org/2000/svg" xmlns:xlink="http://www.w3.org/1999/xlink">
    <title>pictogram-code</title>
    <g id="pictogram-code" stroke="none" stroke-width="1" fill="none" fill-rule="evenodd">
        <g id="Group" transform="translate(48.000000, 12.000000)">
            <rect id="Rectangle" fill="#000000" x="0" y="0" width="4" height="72" rx="2"></rect>
            <rect id="Rectangle-Copy-5" fill="#000000" x="16" y="0" width="32" height="8" rx="4"></rect>
            <rect id="Rectangle-Copy-6" fill="#4C6EF5" x="24" y="16" width="16" height="8" rx="4"></rect>
            <rect id="Rectangle-Copy-20" fill="#4C6EF5" x="68" y="0" width="16" height="8" rx="4"></rect>
            <rect id="Rectangle-Copy-21" fill="#4C6EF5" x="120" y="32" width="16" height="8" rx="4"></rect>
            <rect id="Rectangle-Copy-8" fill="#000000" x="24" y="48" width="12" height="8" rx="4"></rect>
            <rect id="Rectangle-Copy-13" fill="#000000" x="52" y="0" width="12" height="8" rx="4"></rect>
            <rect id="Rectangle-Copy-11" fill="#000000" x="60" y="32" width="12" height="8" rx="4"></rect>
            <rect id="Rectangle-Copy-18" fill="#000000" x="96" y="16" width="12" height="8" rx="4"></rect>
            <rect id="Rectangle-Copy-19" fill="#000000" x="112" y="16" width="12" height="8" rx="4"></rect>
            <rect id="Rectangle-Copy-15" fill="#000000" x="76" y="32" width="12" height="8" rx="4"></rect>
            <rect id="Rectangle-Copy-25" fill="#000000" x="140" y="32" width="12" height="8" rx="4"></rect>
            <rect id="Rectangle-Copy-10" fill="#000000" x="40" y="48" width="20" height="8" rx="4"></rect>
            <rect id="Rectangle-Copy-22" fill="#000000" x="88" y="0" width="20" height="8" rx="4"></rect>
            <rect id="Rectangle-Copy-9" fill="#000000" x="16" y="64" width="48" height="8" rx="4"></rect>
            <rect id="Rectangle-Copy-12" fill="#000000" x="44" y="16" width="48" height="8" rx="4"></rect>
            <rect id="Rectangle-Copy-14" fill="#000000" x="64" y="48" width="8" height="8" rx="4"></rect>
            <rect id="Rectangle-Copy-24" fill="#4C6EF5" x="68" y="64" width="8" height="8" rx="4"></rect>
            <rect id="Rectangle-Copy-23" fill="#000000" x="76" y="48" width="36" height="8" rx="4"></rect>
            <rect id="Rectangle-Copy-7" fill="#000000" x="32" y="32" width="24" height="8" rx="4"></rect>
            <rect id="Rectangle-Copy-16" fill="#000000" x="92" y="32" width="24" height="8" rx="4"></rect>
            <rect id="Rectangle-Copy-17" fill="#000000" x="116" y="48" width="24" height="8" rx="4"></rect>
        </g>
    </g>
</svg>