<?xml version="1.0" encoding="UTF-8"?>
<svg width="248px" height="96px" viewBox="0 0 248 96" version="1.1" xmlns="http://www.w3.org/2000/svg" xmlns:xlink="http://www.w3.org/1999/xlink">
    <title>pictogram-flex</title>
    <g id="pictogram-flex" stroke="none" stroke-width="1" fill="none" fill-rule="evenodd">
        <rect id="Rectangle-Copy-5" fill="#000000" x="64" y="8" width="120" height="24" rx="6"></rect>
        <rect id="Rectangle-Copy-9" fill="#000000" x="188" y="8" width="56" height="24" rx="6"></rect>
        <rect id="Rectangle-Copy-6" fill="#000000" x="97" y="36" width="56" height="24" rx="6"></rect>
        <rect id="Rectangle-Copy-4" fill="#000000" x="4" y="64" width="40" height="24" rx="6"></rect>
        <rect id="Rectangle-Copy-13" fill="#000000" x="48" y="64" width="29" height="24" rx="6"></rect>
        <rect id="Rectangle-Copy-14" fill="#000000" x="172" y="64" width="29" height="24" rx="6"></rect>
        <rect id="Rectangle-Copy-11" fill="#000000" x="205" y="64" width="39" height="24" rx="6"></rect>
        <rect id="Rectangle-Copy-10" fill="#000000" x="4" y="8" width="57" height="24" rx="6"></rect>
        <rect id="Rectangle-Copy-7" fill="#000000" x="4" y="36" width="89" height="24" rx="6"></rect>
        <rect id="Rectangle-Copy-12" fill="#000000" x="80" y="64" width="89" height="24" rx="6"></rect>
        <rect id="Rectangle-Copy-8" fill="#000000" x="157" y="36" width="87" height="24" rx="6"></rect>
        <circle id="Oval" fill="#4C6EF5" cx="16" cy="20" r="4"></circle>
        <circle id="Oval-Copy" fill="#4C6EF5" cx="236" cy="48" r="4"></circle>
        <circle id="Oval-Copy-2" fill="#4C6EF5" cx="124" cy="76" r="4"></circle>
    </g>
</svg>