<?xml version="1.0" encoding="UTF-8"?>
<svg width="248px" height="96px" viewBox="0 0 248 96" version="1.1" xmlns="http://www.w3.org/2000/svg" xmlns:xlink="http://www.w3.org/1999/xlink">
    <title>pictogram-buttonasync</title>
    <g id="pictogram-buttonasync" stroke="none" stroke-width="1" fill="none" fill-rule="evenodd">
        <rect id="Rectangle-Copy-9" fill="#000000" x="32" y="24" width="184" height="48" rx="8"></rect>
        <path d="M124,32 C125.152594,32 126.086957,32.9343623 126.086957,34.0869565 L126.086957,38.2608696 C126.086957,39.4134638 125.152594,40.3478261 124,40.3478261 C122.847406,40.3478261 121.913043,39.4134638 121.913043,38.2608696 L121.913043,34.0869565 C121.913043,32.9343623 122.847406,32 124,32 Z" id="Rectangle-Copy" fill="#FFFFFF"></path>
        <path d="M135.313708,36.6862915 C136.128716,37.5012987 136.128716,38.8226865 135.313708,39.6376937 L132.362306,42.5890959 C131.547299,43.4041032 130.225911,43.4041032 129.410904,42.5890959 C128.595897,41.7740887 128.595897,40.4527009 129.410904,39.6376937 L132.362306,36.6862915 C133.177313,35.8712843 134.498701,35.8712843 135.313708,36.6862915 Z" id="Rectangle-Copy-2" fill="#FFFFFF"></path>
        <path d="M135.826087,43.826087 C136.978681,43.826087 137.913043,44.7604492 137.913043,45.9130435 L137.913043,50.0869565 C137.913043,51.2395508 136.978681,52.173913 135.826087,52.173913 C134.673493,52.173913 133.73913,51.2395508 133.73913,50.0869565 L133.73913,45.9130435 C133.73913,44.7604492 134.673493,43.826087 135.826087,43.826087 Z" id="Rectangle-Copy-3" fill="#FFFFFF" transform="translate(135.826087, 48.000000) rotate(90.000000) translate(-135.826087, -48.000000) "></path>
        <path d="M135.313708,59.3137085 C134.498701,60.1287157 133.177313,60.1287157 132.362306,59.3137085 L129.410904,56.3623063 C128.595897,55.5472991 128.595897,54.2259113 129.410904,53.4109041 C130.225911,52.5958968 131.547299,52.5958968 132.362306,53.4109041 L135.313708,56.3623063 C136.128716,57.1773135 136.128716,58.4987013 135.313708,59.3137085 Z" id="Rectangle-Copy-4" fill="#4C6EF5"></path>
        <path d="M124,55.6521739 C125.152594,55.6521739 126.086957,56.5865362 126.086957,57.7391304 L126.086957,61.9130435 C126.086957,63.0656377 125.152594,64 124,64 C122.847406,64 121.913043,63.0656377 121.913043,61.9130435 L121.913043,57.7391304 C121.913043,56.5865362 122.847406,55.6521739 124,55.6521739 Z" id="Rectangle-Copy-5" fill="#FFFFFF" transform="translate(124.000000, 59.826087) rotate(180.000000) translate(-124.000000, -59.826087) "></path>
        <path d="M112.686292,59.3137085 C111.871284,58.4987013 111.871284,57.1773135 112.686292,56.3623063 L115.637694,53.4109041 C116.452701,52.5958968 117.774089,52.5958968 118.589096,53.4109041 C119.404103,54.2259113 119.404103,55.5472991 118.589096,56.3623063 L115.637694,59.3137085 C114.822687,60.1287157 113.501299,60.1287157 112.686292,59.3137085 Z" id="Rectangle-Copy-6" fill="#FFFFFF"></path>
        <path d="M112.173913,43.826087 C113.326507,43.826087 114.26087,44.7604492 114.26087,45.9130435 L114.26087,50.0869565 C114.26087,51.2395508 113.326507,52.173913 112.173913,52.173913 C111.021319,52.173913 110.086957,51.2395508 110.086957,50.0869565 L110.086957,45.9130435 C110.086957,44.7604492 111.021319,43.826087 112.173913,43.826087 Z" id="Rectangle-Copy-7" fill="#FFFFFF" transform="translate(112.173913, 48.000000) rotate(270.000000) translate(-112.173913, -48.000000) "></path>
        <path d="M112.686292,36.6862915 C113.501299,35.8712843 114.822687,35.8712843 115.637694,36.6862915 L118.589096,39.6376937 C119.404103,40.4527009 119.404103,41.7740887 118.589096,42.5890959 C117.774089,43.4041032 116.452701,43.4041032 115.637694,42.5890959 L112.686292,39.6376937 C111.871284,38.8226865 111.871284,37.5012987 112.686292,36.6862915 Z" id="Rectangle-Copy-8" fill="#FFFFFF"></path>
    </g>
</svg>