<?xml version="1.0" encoding="UTF-8"?>
<svg width="800px" height="292px" viewBox="0 0 800 292" version="1.1" xmlns="http://www.w3.org/2000/svg" xmlns:xlink="http://www.w3.org/1999/xlink">
    <!-- Generator: Sketch 50.2 (55047) - http://www.bohemiancoding.com/sketch -->
    <title>Background (Day)</title>
    <desc>Created with Sketch.</desc>
    <defs></defs>
    <g id="Background-(Day)" stroke="none" stroke-width="1" fill="none" fill-rule="evenodd">
        <rect id="Rectangle-4" fill="#4DABF7" x="0" y="0" width="800" height="600"></rect>
        <g id="Group" opacity="0.157645089" transform="translate(-9.000000, -22.000000)">
            <g id="Shape" transform="translate(52.000000, 36.000000)">
                <ellipse id="Circle-Fill" fill="#F8F9FA" cx="14.1109835" cy="13.7484765" rx="14.1109835" ry="13.7484765"></ellipse>
                <ellipse id="Circle-Stroke" stroke="#212529" stroke-width="2" cx="19.7441196" cy="16.1168975" rx="14.1109835" ry="13.7484765"></ellipse>
            </g>
            <g id="Shape" transform="translate(134.222432, 129.490381) rotate(-30.000000) translate(-134.222432, -129.490381) translate(117.222432, 114.490381)">
                <ellipse id="Circle-Fill" fill="#F8F9FA" cx="14.1109835" cy="13.7484765" rx="14.1109835" ry="13.7484765"></ellipse>
                <ellipse id="Circle-Stroke" stroke="#212529" stroke-width="2" cx="19.7441196" cy="16.1168975" rx="14.1109835" ry="13.7484765"></ellipse>
            </g>
            <g id="Shape" transform="translate(542.490381, 22.222432) rotate(-60.000000) translate(-542.490381, -22.222432) translate(525.490381, 7.222432)">
                <ellipse id="Circle-Fill" fill="#F8F9FA" cx="14.1109835" cy="13.7484765" rx="14.1109835" ry="13.7484765"></ellipse>
                <ellipse id="Circle-Stroke" stroke="#212529" stroke-width="2" cx="19.7441196" cy="16.1168975" rx="14.1109835" ry="13.7484765"></ellipse>
            </g>
            <g id="Shape" transform="translate(542.490381, 325.444864) rotate(-60.000000) translate(-542.490381, -325.444864) translate(525.490381, 310.444864)">
                <ellipse id="Circle-Fill" fill="#F8F9FA" cx="14.1109835" cy="13.7484765" rx="14.1109835" ry="13.7484765"></ellipse>
                <ellipse id="Circle-Stroke" stroke="#212529" stroke-width="2" cx="19.7441196" cy="16.1168975" rx="14.1109835" ry="13.7484765"></ellipse>
            </g>
            <g id="Shape" transform="translate(165.000000, 30.000000)">
                <ellipse id="Circle-Fill" fill="#212529" cx="14.1109835" cy="13.7484765" rx="14.1109835" ry="13.7484765"></ellipse>
                <ellipse id="Circle-Stroke" stroke="#F8F9FA" stroke-width="2" cx="19.7441196" cy="16.1168975" rx="14.1109835" ry="13.7484765"></ellipse>
            </g>
            <g id="Shape" transform="translate(52.222432, 292.490381) rotate(-30.000000) translate(-52.222432, -292.490381) translate(35.222432, 277.490381)">
                <ellipse id="Circle-Fill" fill="#212529" cx="14.1109835" cy="13.7484765" rx="14.1109835" ry="13.7484765"></ellipse>
                <ellipse id="Circle-Stroke" stroke="#F8F9FA" stroke-width="2" cx="19.7441196" cy="16.1168975" rx="14.1109835" ry="13.7484765"></ellipse>
            </g>
            <g id="Shape" transform="translate(357.490381, 125.222432) rotate(-60.000000) translate(-357.490381, -125.222432) translate(340.490381, 110.222432)">
                <ellipse id="Circle-Fill" fill="#212529" cx="14.1109835" cy="13.7484765" rx="14.1109835" ry="13.7484765"></ellipse>
                <ellipse id="Circle-Stroke" stroke="#F8F9FA" stroke-width="2" cx="19.7441196" cy="16.1168975" rx="14.1109835" ry="13.7484765"></ellipse>
            </g>
            <g id="Shape" transform="translate(0.000000, 108.000000)">
                <polygon id="Triangle-Fill" fill="#212529" points="0 29.5977386 18.9844569 10.744898 24.0558723 25.9637078 28.4 39"></polygon>
                <polygon id="Triangle-Stroke" stroke="#F8F9FA" stroke-width="2" points="1.6 18.8528406 20.5844569 -7.10542736e-15 25.6558723 15.2188099 30 28.255102"></polygon>
            </g>
            <g id="Shape" transform="translate(204.740381, 196.387495) rotate(-30.000000) translate(-204.740381, -196.387495) translate(189.740381, 176.887495)">
                <polygon id="Triangle-Fill" fill="#212529" points="0 29.5977386 18.9844569 10.744898 24.0558723 25.9637078 28.4 39"></polygon>
                <polygon id="Triangle-Stroke" stroke="#F8F9FA" stroke-width="2" points="1.6 18.8528406 20.5844569 -7.10542736e-15 25.6558723 15.2188099 30 28.255102"></polygon>
            </g>
            <g id="Shape" transform="translate(411.387495, 59.740381) rotate(-60.000000) translate(-411.387495, -59.740381) translate(396.387495, 40.240381)">
                <polygon id="Triangle-Fill" fill="#212529" points="0 29.5977386 18.9844569 10.744898 24.0558723 25.9637078 28.4 39"></polygon>
                <polygon id="Triangle-Stroke" stroke="#F8F9FA" stroke-width="2" points="1.6 18.8528406 20.5844569 -7.10542736e-15 25.6558723 15.2188099 30 28.255102"></polygon>
            </g>
            <g id="Shape" transform="translate(44.000000, 187.000000)">
                <polygon id="Triangle-Fill" fill="#F8F9FA" points="0 29.5977386 18.9844569 10.744898 24.0558723 25.9637078 28.4 39"></polygon>
                <polygon id="Triangle-Stroke" stroke="#212529" stroke-width="2" points="1.6 18.8528406 20.5844569 -7.10542736e-15 25.6558723 15.2188099 30 28.255102"></polygon>
            </g>
            <g id="Shape" transform="translate(244.740381, 121.387495) rotate(-30.000000) translate(-244.740381, -121.387495) translate(229.740381, 101.887495)">
                <polygon id="Triangle-Fill" fill="#F8F9FA" points="0 29.5977386 18.9844569 10.744898 24.0558723 25.9637078 28.4 39"></polygon>
                <polygon id="Triangle-Stroke" stroke="#212529" stroke-width="2" points="1.6 18.8528406 20.5844569 -7.10542736e-15 25.6558723 15.2188099 30 28.255102"></polygon>
            </g>
            <g id="Shape" transform="translate(528.387495, 194.740381) rotate(-60.000000) translate(-528.387495, -194.740381) translate(513.387495, 175.240381)">
                <polygon id="Triangle-Fill" fill="#F8F9FA" points="0 29.5977386 18.9844569 10.744898 24.0558723 25.9637078 28.4 39"></polygon>
                <polygon id="Triangle-Stroke" stroke="#212529" stroke-width="2" points="1.6 18.8528406 20.5844569 -7.10542736e-15 25.6558723 15.2188099 30 28.255102"></polygon>
            </g>
            <g id="Shape" transform="translate(112.000000, 231.000000)">
                <rect id="Square-Fill" fill="#212529" x="7.35403727" y="0" width="24.5883788" height="24.9493074"></rect>
                <rect id="Square-Stroke" stroke="#F8F9FA" stroke-width="2" x="0" y="5.03355705" width="24.7876555" height="24.9493074"></rect>
            </g>
            <g id="Shape" transform="translate(284.356406, 271.990381) rotate(-30.000000) translate(-284.356406, -271.990381) translate(268.356406, 256.990381)">
                <rect id="Square-Fill" fill="#212529" x="7.35403727" y="0" width="24.5883788" height="24.9493074"></rect>
                <rect id="Square-Stroke" stroke="#F8F9FA" stroke-width="2" x="0" y="5.03355705" width="24.7876555" height="24.9493074"></rect>
            </g>
            <g id="Shape" transform="translate(582.990381, 267.356406) rotate(-60.000000) translate(-582.990381, -267.356406) translate(566.990381, 252.356406)">
                <rect id="Square-Fill" fill="#212529" x="7.35403727" y="0" width="24.5883788" height="24.9493074"></rect>
                <rect id="Square-Stroke" stroke="#F8F9FA" stroke-width="2" x="0" y="5.03355705" width="24.7876555" height="24.9493074"></rect>
            </g>
            <g id="Shape" transform="translate(793.000000, 157.000000)">
                <rect id="Square-Fill" fill="#F8F9FA" x="7.35403727" y="0" width="24.5883788" height="24.9493074"></rect>
                <rect id="Square-Stroke" stroke="#212529" stroke-width="2" x="0" y="5.03355705" width="24.7876555" height="24.9493074"></rect>
            </g>
            <g id="Shape" transform="translate(305.356406, 65.990381) rotate(-30.000000) translate(-305.356406, -65.990381) translate(289.356406, 50.990381)">
                <rect id="Square-Fill" fill="#F8F9FA" x="7.35403727" y="0" width="24.5883788" height="24.9493074"></rect>
                <rect id="Square-Stroke" stroke="#212529" stroke-width="2" x="0" y="5.03355705" width="24.7876555" height="24.9493074"></rect>
            </g>
            <g id="Shape" transform="translate(320.990381, 193.356406) rotate(-60.000000) translate(-320.990381, -193.356406) translate(304.990381, 178.356406)">
                <rect id="Square-Fill" fill="#F8F9FA" x="7.35403727" y="0" width="24.5883788" height="24.9493074"></rect>
                <rect id="Square-Stroke" stroke="#212529" stroke-width="2" x="0" y="5.03355705" width="24.7876555" height="24.9493074"></rect>
            </g>
            <g id="Shape" transform="translate(445.000000, 144.000000) rotate(-90.000000) translate(-445.000000, -144.000000) translate(428.000000, 129.000000)">
                <ellipse id="Circle-Fill" fill="#F8F9FA" cx="14.1109835" cy="13.7484765" rx="14.1109835" ry="13.7484765"></ellipse>
                <ellipse id="Circle-Stroke" stroke="#212529" stroke-width="2" cx="19.7441196" cy="16.1168975" rx="14.1109835" ry="13.7484765"></ellipse>
            </g>
            <g id="Shape" transform="translate(675.490381, 288.222432) rotate(-120.000000) translate(-675.490381, -288.222432) translate(658.490381, 273.222432)">
                <ellipse id="Circle-Fill" fill="#F8F9FA" cx="14.1109835" cy="13.7484765" rx="14.1109835" ry="13.7484765"></ellipse>
                <ellipse id="Circle-Stroke" stroke="#212529" stroke-width="2" cx="19.7441196" cy="16.1168975" rx="14.1109835" ry="13.7484765"></ellipse>
            </g>
            <g id="Shape" transform="translate(385.000000, 305.000000) rotate(-90.000000) translate(-385.000000, -305.000000) translate(368.000000, 290.000000)">
                <ellipse id="Circle-Fill" fill="#212529" cx="14.1109835" cy="13.7484765" rx="14.1109835" ry="13.7484765"></ellipse>
                <ellipse id="Circle-Stroke" stroke="#F8F9FA" stroke-width="2" cx="19.7441196" cy="16.1168975" rx="14.1109835" ry="13.7484765"></ellipse>
            </g>
            <g id="Shape" transform="translate(762.490381, 60.222432) rotate(-120.000000) translate(-762.490381, -60.222432) translate(745.490381, 45.222432)">
                <ellipse id="Circle-Fill" fill="#212529" cx="14.1109835" cy="13.7484765" rx="14.1109835" ry="13.7484765"></ellipse>
                <ellipse id="Circle-Stroke" stroke="#F8F9FA" stroke-width="2" cx="19.7441196" cy="16.1168975" rx="14.1109835" ry="13.7484765"></ellipse>
            </g>
            <g id="Shape" transform="translate(523.500000, 97.000000) rotate(-90.000000) translate(-523.500000, -97.000000) translate(508.500000, 77.500000)">
                <polygon id="Triangle-Fill" fill="#212529" points="0 29.5977386 18.9844569 10.744898 24.0558723 25.9637078 28.4 39"></polygon>
                <polygon id="Triangle-Stroke" stroke="#F8F9FA" stroke-width="2" points="1.6 18.8528406 20.5844569 -7.10542736e-15 25.6558723 15.2188099 30 28.255102"></polygon>
            </g>
            <g id="Shape" transform="translate(479.387495, 273.740381) rotate(-120.000000) translate(-479.387495, -273.740381) translate(464.387495, 254.240381)">
                <polygon id="Triangle-Fill" fill="#212529" points="0 29.5977386 18.9844569 10.744898 24.0558723 25.9637078 28.4 39"></polygon>
                <polygon id="Triangle-Stroke" stroke="#F8F9FA" stroke-width="2" points="1.6 18.8528406 20.5844569 -7.10542736e-15 25.6558723 15.2188099 30 28.255102"></polygon>
            </g>
            <g id="Shape" transform="translate(653.500000, 81.000000) rotate(-90.000000) translate(-653.500000, -81.000000) translate(638.500000, 61.500000)">
                <polygon id="Triangle-Fill" fill="#F8F9FA" points="0 29.5977386 18.9844569 10.744898 24.0558723 25.9637078 28.4 39"></polygon>
                <polygon id="Triangle-Stroke" stroke="#212529" stroke-width="2" points="1.6 18.8528406 20.5844569 -7.10542736e-15 25.6558723 15.2188099 30 28.255102"></polygon>
            </g>
            <g id="Shape" transform="translate(712.387495, 194.740381) rotate(-120.000000) translate(-712.387495, -194.740381) translate(697.387495, 175.240381)">
                <polygon id="Triangle-Fill" fill="#F8F9FA" points="0 29.5977386 18.9844569 10.744898 24.0558723 25.9637078 28.4 39"></polygon>
                <polygon id="Triangle-Stroke" stroke="#212529" stroke-width="2" points="1.6 18.8528406 20.5844569 -7.10542736e-15 25.6558723 15.2188099 30 28.255102"></polygon>
            </g>
            <g id="Shape" transform="translate(619.000000, 177.000000) rotate(-90.000000) translate(-619.000000, -177.000000) translate(603.000000, 162.000000)">
                <rect id="Square-Fill" fill="#212529" x="7.35403727" y="0" width="24.5883788" height="24.9493074"></rect>
                <rect id="Square-Stroke" stroke="#F8F9FA" stroke-width="2" x="0" y="5.03355705" width="24.7876555" height="24.9493074"></rect>
            </g>
            <g id="Shape" transform="translate(762.990381, 277.356406) rotate(-120.000000) translate(-762.990381, -277.356406) translate(746.990381, 262.356406)">
                <rect id="Square-Fill" fill="#212529" x="7.35403727" y="0" width="24.5883788" height="24.9493074"></rect>
                <rect id="Square-Stroke" stroke="#F8F9FA" stroke-width="2" x="0" y="5.03355705" width="24.7876555" height="24.9493074"></rect>
            </g>
            <g id="Shape" transform="translate(205.000000, 289.000000) rotate(-90.000000) translate(-205.000000, -289.000000) translate(189.000000, 274.000000)">
                <rect id="Square-Fill" fill="#F8F9FA" x="7.35403727" y="0" width="24.5883788" height="24.9493074"></rect>
                <rect id="Square-Stroke" stroke="#212529" stroke-width="2" x="0" y="5.03355705" width="24.7876555" height="24.9493074"></rect>
            </g>
            <g id="Shape" transform="translate(420.990381, 226.356406) rotate(-120.000000) translate(-420.990381, -226.356406) translate(404.990381, 211.356406)">
                <rect id="Square-Fill" fill="#F8F9FA" x="7.35403727" y="0" width="24.5883788" height="24.9493074"></rect>
                <rect id="Square-Stroke" stroke="#212529" stroke-width="2" x="0" y="5.03355705" width="24.7876555" height="24.9493074"></rect>
            </g>
        </g>
        <text id="Preshape" font-family="Roboto-Bold, Roboto" font-size="52" font-weight="bold" fill="#FFFFFF">
            <tspan x="289" y="160">Preshape</tspan>
        </text>
    </g>
</svg>