<?xml version="1.0" encoding="UTF-8"?>
<svg width="248px" height="96px" viewBox="0 0 248 96" version="1.1" xmlns="http://www.w3.org/2000/svg" xmlns:xlink="http://www.w3.org/1999/xlink">
    <!-- Generator: Sketch 57.1 (83088) - https://sketch.com -->
    <title>pictogram-code</title>
    <desc>Created with Sketch.</desc>
    <g id="pictogram-code" stroke="none" stroke-width="1" fill="none" fill-rule="evenodd">
        <rect id="Rectangle" fill="#000000" x="48" y="12" width="4" height="72" rx="1"></rect>
        <rect id="Rectangle-Copy-5" fill="#000000" x="64" y="12" width="32" height="8" rx="1"></rect>
        <rect id="Rectangle-Copy-6" fill="#4C6EF5" x="72" y="28" width="16" height="8" rx="1"></rect>
        <rect id="Rectangle-Copy-20" fill="#4C6EF5" x="116" y="12" width="16" height="8" rx="1"></rect>
        <rect id="Rectangle-Copy-21" fill="#4C6EF5" x="168" y="44" width="16" height="8" rx="1"></rect>
        <rect id="Rectangle-Copy-8" fill="#000000" x="72" y="60" width="12" height="8" rx="1"></rect>
        <rect id="Rectangle-Copy-13" fill="#000000" x="100" y="12" width="12" height="8" rx="1"></rect>
        <rect id="Rectangle-Copy-11" fill="#000000" x="108" y="44" width="12" height="8" rx="1"></rect>
        <rect id="Rectangle-Copy-18" fill="#000000" x="144" y="28" width="12" height="8" rx="1"></rect>
        <rect id="Rectangle-Copy-19" fill="#000000" x="160" y="28" width="12" height="8" rx="1"></rect>
        <rect id="Rectangle-Copy-15" fill="#000000" x="124" y="44" width="12" height="8" rx="1"></rect>
        <rect id="Rectangle-Copy-25" fill="#000000" x="188" y="44" width="12" height="8" rx="1"></rect>
        <rect id="Rectangle-Copy-10" fill="#000000" x="88" y="60" width="20" height="8" rx="1"></rect>
        <rect id="Rectangle-Copy-22" fill="#000000" x="136" y="12" width="20" height="8" rx="1"></rect>
        <rect id="Rectangle-Copy-9" fill="#000000" x="64" y="76" width="48" height="8" rx="1"></rect>
        <rect id="Rectangle-Copy-12" fill="#000000" x="92" y="28" width="48" height="8" rx="1"></rect>
        <rect id="Rectangle-Copy-14" fill="#000000" x="112" y="60" width="8" height="8" rx="1"></rect>
        <rect id="Rectangle-Copy-24" fill="#4C6EF5" x="116" y="76" width="8" height="8" rx="1"></rect>
        <rect id="Rectangle-Copy-23" fill="#000000" x="124" y="60" width="36" height="8" rx="1"></rect>
        <rect id="Rectangle-Copy-7" fill="#000000" x="80" y="44" width="24" height="8" rx="1"></rect>
        <rect id="Rectangle-Copy-16" fill="#000000" x="140" y="44" width="24" height="8" rx="1"></rect>
        <rect id="Rectangle-Copy-17" fill="#000000" x="164" y="60" width="24" height="8" rx="1"></rect>
    </g>
</svg>