<?xml version="1.0" encoding="UTF-8"?>
<svg width="248px" height="96px" viewBox="0 0 248 96" version="1.1" xmlns="http://www.w3.org/2000/svg" xmlns:xlink="http://www.w3.org/1999/xlink">
    <!-- Generator: Sketch 57.1 (83088) - https://sketch.com -->
    <title>pictogram-table</title>
    <desc>Created with Sketch.</desc>
    <g id="pictogram-table" stroke="none" stroke-width="1" fill="none" fill-rule="evenodd">
        <rect id="Rectangle-Copy-2" fill="#000000" x="4" y="32" width="240" height="4" rx="1"></rect>
        <rect id="Rectangle-Copy-5" fill="#000000" x="24" y="16" width="56" height="8" rx="1"></rect>
        <rect id="Rectangle-Copy-8" fill="#000000" x="24" y="44" width="72" height="8" rx="1"></rect>
        <rect id="Rectangle-Copy-14" fill="#4C6EF5" x="12" y="44" width="8" height="8" rx="4"></rect>
        <rect id="Rectangle-Copy-13" fill="#000000" x="24" y="70" width="80" height="8" rx="1"></rect>
        <rect id="Rectangle-Copy-15" fill="#4C6EF5" x="12" y="70" width="8" height="8" rx="4"></rect>
        <rect id="Rectangle-Copy-9" fill="#000000" x="144" y="44" width="24" height="8" rx="1"></rect>
        <rect id="Rectangle-Copy-11" fill="#000000" x="204" y="44" width="32" height="8" rx="1"></rect>
        <rect id="Rectangle-Copy-10" fill="#000000" x="144" y="70" width="24" height="8" rx="1"></rect>
        <rect id="Rectangle-Copy-12" fill="#000000" x="204" y="70" width="32" height="8" rx="1"></rect>
        <rect id="Rectangle-Copy-6" fill="#000000" x="120" y="16" width="48" height="8" rx="1"></rect>
        <rect id="Rectangle-Copy-7" fill="#000000" x="180" y="16" width="56" height="8" rx="1"></rect>
        <rect id="Rectangle-Copy-3" fill="#000000" x="4" y="60" width="240" height="2" rx="1"></rect>
        <rect id="Rectangle-Copy-4" fill="#000000" x="4" y="86" width="240" height="2" rx="1"></rect>
    </g>
</svg>