<?xml version="1.0" standalone="no"?>
<!DOCTYPE svg PUBLIC "-//W3C//DTD SVG 20010904//EN"
 "http://www.w3.org/TR/2001/REC-SVG-20010904/DTD/svg10.dtd">
<svg version="1.0" xmlns="http://www.w3.org/2000/svg"
 width="804.000000pt" height="804.000000pt" viewBox="0 0 804.000000 804.000000"
 preserveAspectRatio="xMidYMid meet">
<metadata>
Created by potrace 1.11, written by Peter Selinger 2001-2013
</metadata>
<g transform="translate(0.000000,804.000000) scale(0.100000,-0.100000)"
fill="#000000" stroke="none">
<path d="M820 4020 l0 -4020 1150 0 1151 0 -1 48 c-2 152 -2 228 -1 240 3 29
3 42 1 144 -1 59 1 112 5 118 3 5 2 10 -3 10 -6 0 -7 14 -2 34 4 19 6 37 3 40
-3 2 -4 37 -3 78 0 40 1 96 1 123 0 28 0 84 0 125 0 41 0 82 0 90 -2 84 0 133
4 141 4 5 2 9 -3 9 -6 0 -7 14 -2 34 4 19 6 37 3 40 -3 2 -4 37 -3 78 1 79 1
94 0 318 -1 83 2 155 5 160 3 6 1 10 -5 10 -6 0 -8 5 -5 11 4 5 6 34 5 62 0
29 -1 57 -1 62 0 6 0 60 0 120 0 61 0 117 0 125 0 8 0 44 0 80 0 36 0 73 0 83
-1 104 3 167 13 161 5 -4 40 -6 77 -4 36 1 72 1 79 1 6 -1 18 -1 25 -1 6 -1
539 1 1184 3 l1172 4 20 24 c11 13 20 27 21 31 0 3 32 61 70 129 38 67 70 124
70 127 0 2 8 16 18 30 11 15 33 52 49 82 17 30 56 100 88 155 31 55 73 129 92
165 20 36 39 70 43 75 4 6 20 33 36 60 36 65 44 79 158 278 53 93 96 171 96
174 0 4 6 14 14 22 7 9 29 45 49 81 19 36 67 121 106 189 39 68 71 126 71 129
0 2 8 16 18 30 11 15 32 52 49 82 17 30 42 75 57 100 15 25 31 57 37 73 6 15
15 27 20 27 5 0 9 4 9 9 0 5 16 38 36 73 20 34 48 83 62 108 14 25 79 138 144
253 100 175 118 214 118 250 0 23 -6 51 -14 62 -7 11 -28 47 -46 80 -41 74
-60 107 -110 196 -22 39 -40 73 -40 75 0 2 -11 21 -24 42 -36 57 -80 137 -76
137 3 0 -10 21 -28 47 -18 26 -32 51 -32 57 0 5 -6 16 -12 23 -7 7 -22 31 -34
53 -11 22 -51 93 -87 157 -37 65 -67 122 -67 128 0 5 -4 10 -9 10 -5 0 -11 8
-14 18 -4 9 -17 35 -29 57 -13 22 -41 71 -63 110 -22 38 -44 77 -50 87 -5 9
-21 38 -35 65 -14 26 -28 50 -32 51 -5 2 -8 9 -8 16 0 7 -6 18 -12 24 -7 7
-13 16 -13 20 0 4 -10 23 -21 42 -49 80 -194 343 -194 351 0 5 -4 9 -8 9 -4 0
-13 12 -19 28 -7 15 -24 47 -38 72 -72 122 -245 429 -261 463 -10 20 -21 37
-26 37 -4 0 -8 9 -8 19 0 11 -4 21 -8 23 -5 2 -30 42 -56 91 l-48 87 -2439 0
-2439 0 0 -4020z"/>
</g>
</svg>
